<?xml version="1.0" standalone="no"?>
<!DOCTYPE svg PUBLIC "-//W3C//DTD SVG 20010904//EN"
 "http://www.w3.org/TR/2001/REC-SVG-20010904/DTD/svg10.dtd">
<svg version="1.0" xmlns="http://www.w3.org/2000/svg"
 width="1640.000000pt" height="624.000000pt" viewBox="0 0 1640.000000 624.000000"
 preserveAspectRatio="xMidYMid meet">
<metadata>
Created by potrace 1.16, written by Peter Selinger 2001-2019
</metadata>
<g transform="translate(0.000000,624.000000) scale(0.100000,-0.100000)"
fill="#000000" stroke="none">
<path d="M820 3120 l0 -2870 7380 0 7380 0 0 2870 0 2870 -7380 0 -7380 0 0
-2870z m3148 1824 c682 -101 1268 -601 1480 -1265 67 -209 76 -278 76 -559 0
-228 -2 -266 -22 -360 -84 -384 -262 -705 -539 -970 -147 -141 -267 -225 -458
-320 -276 -137 -503 -190 -820 -190 -220 0 -368 22 -555 82 -289 93 -535 244
-752 465 -263 266 -421 562 -499 933 -26 121 -37 476 -20 602 60 425 243 784
557 1090 277 271 654 451 1049 501 87 11 406 6 503 -9z m8511 -1133 c137 -98
57 -315 -110 -299 -163 16 -204 237 -57 312 45 23 125 17 167 -13z m-2649
-686 l0 -675 -125 0 -125 0 0 675 0 675 125 0 125 0 0 -675z m4310 480 l0
-195 185 0 185 0 0 -125 0 -125 -185 0 -185 0 0 -157 c0 -132 3 -165 19 -198
38 -83 89 -105 241 -105 l110 0 0 -125 0 -125 -122 0 c-72 0 -144 6 -174 14
-124 33 -230 123 -287 243 l-32 68 -3 193 -4 192 -59 0 -59 0 0 125 0 125 60
0 60 0 0 195 0 195 125 0 125 0 0 -195z m-2060 15 l0 -130 -325 0 -325 0 0
-130 0 -130 195 0 195 0 0 -130 0 -130 -195 0 -195 0 0 -260 0 -260 -130 0
-130 0 0 650 0 650 455 0 455 0 0 -130z m-5071 105 c187 -49 342 -210 380
-393 35 -168 -11 -330 -132 -458 -119 -128 -222 -164 -466 -164 l-161 0 0
-130 0 -130 -130 0 -130 0 0 645 0 645 293 0 c221 0 305 -4 346 -15z m1989
-290 c245 -58 401 -280 379 -540 -37 -428 -539 -619 -840 -318 -199 199 -198
524 2 724 127 126 289 174 459 134z m1697 -16 c107 -39 245 -149 231 -184 -2
-7 -104 -133 -225 -279 -122 -146 -221 -268 -221 -272 0 -4 29 -4 65 -2 79 7
144 42 182 99 l26 40 89 -88 c48 -48 88 -92 88 -97 0 -18 -115 -121 -166 -148
-105 -57 -242 -73 -359 -43 -172 45 -304 183 -352 368 -31 124 -4 302 63 409
71 112 198 197 334 222 55 10 187 -3 245 -25z m-3012 -21 c3 -7 19 -32 36 -56
l31 -42 53 35 c86 58 157 75 318 75 l139 0 0 -125 0 -125 -125 0 c-168 0 -217
-20 -256 -105 -17 -36 -19 -70 -19 -322 l0 -283 -125 0 -125 0 0 480 0 480 34
0 c19 0 36 -6 39 -12z m4827 -468 l0 -480 -125 0 -125 0 0 480 0 480 125 0
125 0 0 -480z m1040 355 l0 -125 -262 0 c-229 0 -264 -2 -280 -17 -23 -20 -23
-55 0 -76 14 -12 52 -16 197 -19 161 -3 185 -6 230 -26 60 -28 107 -71 143
-132 24 -39 27 -56 27 -130 0 -69 -4 -94 -23 -132 -30 -60 -90 -120 -150 -150
-46 -22 -56 -23 -369 -26 l-323 -3 0 126 0 125 292 0 c257 0 294 2 310 17 24
21 23 60 -1 73 -11 6 -90 10 -185 10 -200 0 -248 13 -326 90 -119 120 -120
311 0 431 83 83 109 88 438 88 l282 1 0 -125z"/>
<path d="M3769 4795 c0 -8 -1 -764 -1 -1680 0 -916 1 -1670 1 -1676 1 -18 149
-4 287 26 323 72 591 221 829 459 136 136 215 242 298 396 218 406 261 894
116 1332 -42 129 -147 335 -224 443 -266 372 -666 622 -1110 695 -147 24 -195
26 -196 5z"/>
<path d="M6630 3225 l0 -257 163 4 c178 3 199 9 265 72 56 52 76 101 76 181 0
80 -20 129 -76 181 -66 63 -87 69 -265 72 l-163 4 0 -257z"/>
<path d="M8820 3191 c-112 -37 -180 -133 -180 -256 0 -138 113 -255 245 -255
262 0 335 376 98 499 -29 15 -131 23 -163 12z"/>
<path d="M10470 3191 c-69 -21 -121 -65 -156 -131 -15 -27 -19 -57 -19 -127 0
-53 5 -97 11 -103 8 -8 49 40 149 171 106 139 134 183 124 190 -17 10 -74 10
-109 0z"/>
</g>
</svg>
