<?xml version="1.0" standalone="no"?>
<!DOCTYPE svg PUBLIC "-//W3C//DTD SVG 20010904//EN"
 "http://www.w3.org/TR/2001/REC-SVG-20010904/DTD/svg10.dtd">
<svg version="1.0" xmlns="http://www.w3.org/2000/svg"
 width="410.000000pt" height="410.000000pt" viewBox="0 0 410.000000 410.000000"
 preserveAspectRatio="xMidYMid meet">

<g transform="translate(0.000000,410.000000) scale(0.100000,-0.100000)"
fill="#000000" stroke="none">
<path d="M1863 3750 c-51 -5 -101 -14 -112 -19 -17 -9 -19 -29 -24 -243 -6
-253 -20 -364 -68 -557 -43 -174 -91 -302 -180 -481 -233 -468 -598 -842
-1061 -1090 -66 -35 -98 -57 -98 -69 0 -10 31 -80 70 -157 65 -129 160 -275
234 -358 l31 -36 75 46 c317 196 719 331 1090 365 154 14 465 6 610 -16 139
-22 382 -84 506 -130 133 -50 320 -141 428 -209 48 -31 92 -56 96 -56 27 0
219 293 285 435 65 139 67 126 -17 170 -248 130 -425 261 -633 470 -323 323
-520 664 -635 1099 -49 184 -61 284 -69 548 -4 164 -10 251 -18 259 -6 6 -31
15 -55 20 -68 13 -354 19 -455 9z m247 -1732 c35 -66 79 -144 97 -172 l32 -51
-100 -3 c-54 -1 -144 -1 -199 0 l-100 3 54 92 c30 51 74 128 98 172 23 45 45
81 48 81 3 0 34 -55 70 -122z"/>
<path d="M1225 3581 c-77 -38 -148 -78 -157 -88 -13 -13 -21 -49 -28 -119 -31
-304 -125 -564 -296 -822 -100 -150 -283 -339 -434 -447 l-111 -80 5 -155 c4
-155 10 -190 28 -190 20 0 201 113 301 188 121 91 295 257 380 362 128 159
255 384 336 598 79 206 124 473 119 695 l-3 128 -140 -70z"/>
<path d="M2747 3633 c-12 -11 -7 -194 8 -327 32 -274 83 -445 210 -701 119
-240 271 -436 494 -638 119 -108 417 -304 435 -287 6 7 26 228 26 292 l0 48
-80 56 c-93 65 -242 196 -319 280 -251 274 -415 648 -447 1022 -5 59 -12 90
-26 108 -11 14 -78 54 -149 89 -132 66 -141 70 -152 58z"/>
<path d="M1838 800 c-175 -19 -387 -71 -553 -137 -101 -40 -295 -135 -338
-165 l-27 -20 107 -70 c60 -38 129 -80 155 -94 l46 -23 109 45 c240 101 455
144 716 144 271 0 443 -34 699 -136 l137 -55 73 42 c59 35 164 101 223 141 36
25 -338 198 -565 261 -224 63 -553 91 -782 67z"/>
</g>
</svg>
