<svg id="Layer_1" height="512" viewBox="0 0 512 512" width="512" xmlns="http://www.w3.org/2000/svg" data-name="Layer 1"><path d="m149.721 383.828a5 5 0 0 0 7.185-6.956c-36.436-37.63-71.139-97.675-29.557-170.039a5 5 0 1 0 -8.671-4.982c-20.156 35.076-25.348 70.71-15.431 105.909 7.4 26.269 23.036 51.862 46.474 76.068z"/><path d="m22.441 246.79c.3-.1 27.187-9.255 44.92-7.2a184.594 184.594 0 0 0 -2.729 31.186c-.089 43.165 18.685 86.291 51.511 118.319 27.214 26.554 57.086 36.847 93.219 47.333a74.475 74.475 0 0 0 3.183 11.41c5.163 13.979 17.045 31.888 44.333 37.818a4.995 4.995 0 0 0 5.578-2.738c.437-.92 10.565-22.816-1.544-49.36a4.711 4.711 0 0 1 2.338-6.215c11.086-5.007 26.173-14.953 35.091-33.9a5 5 0 0 0 -2.841-6.838 85.8 85.8 0 0 0 -31.864-3.825c-15.4 1.066-36.481 7.139-52.009 29.407-19.517-14.917-35.124-35.169-43.211-56.24a93.867 93.867 0 0 1 -.576-65.85 76.037 76.037 0 0 1 4.192-9.628c17.714 14.745 50.152 9.249 51.664 8.981a5 5 0 0 0 1.424-9.367c-11.974-6.178-19.409-29.144-21.9-40.022a122.251 122.251 0 0 0 15.856-23.532c10.279-20.707 10.2-41.919-.214-58.2-10.447-16.328-29.843-25.315-53.209-24.65a76.821 76.821 0 0 0 -22.792 4.221c-22.157 7.614-41.016 23.16-54.616 45-30.7 15.675-49.387 32.368-71.1 55.756a5 5 0 0 0 5.293 8.129zm195.435 174.073c10.752-17.163 26.26-26.61 46.109-28.081a78.719 78.719 0 0 1 22.468 1.709 60.871 60.871 0 0 1 -27.32 23.739 14.709 14.709 0 0 0 -7.319 19.478 52.857 52.857 0 0 1 2.989 37.117c-36.15-10.448-37.098-46.811-36.927-53.962zm-123.836-229.684a4.987 4.987 0 0 0 2.168-2.133c12.584-20.606 29.374-34.631 49.905-41.686a66.824 66.824 0 0 1 19.825-3.682c19.781-.547 35.994 6.745 44.5 20.044 8.476 13.249 8.36 30.876-.32 48.362-4.528 9.121-10.577 16.832-15.929 23.189a5 5 0 0 0 -1.277 4.388 130.087 130.087 0 0 0 6.03 20.3c3.356 8.618 7.214 15.523 11.533 20.661-2.462.069-5.182.051-8.016-.129-9.163-.581-21.357-3.012-27.411-11.292a5 5 0 0 0 -8.3.322 89.489 89.489 0 0 0 -8.34 17.228 103.746 103.746 0 0 0 .665 72.777c9.054 23.59 26.762 46.177 48.8 62.341 0 1.018.033 2.278.116 3.737-32.913-9.692-60.331-19.732-84.868-43.673-30.9-30.152-48.578-70.661-48.494-111.141a174.456 174.456 0 0 1 3.429-34.007c.017-.074.034-.148.048-.223a5 5 0 0 0 -3.609-5.79c-10.942-2.94-25.862-.906-37.458 1.649 16.478-16.316 32.931-29.108 57.003-41.242z"/><path d="m360.576 134.919a5 5 0 0 0 -.394 7.06c20.214 22.6 33.33 46.186 38.983 70.1 7.29 30.837 1.973 62.158-15.8 93.094a5 5 0 1 0 8.671 4.982c42.667-74.252 10.284-136.061-24.4-174.837a5 5 0 0 0 -7.06-.399z"/><path d="m488.269 265.211c-.3.1-27.186 9.257-44.921 7.2a184.492 184.492 0 0 0 2.73-31.186c.089-43.165-18.685-86.291-51.511-118.319-27.215-26.554-57.087-36.847-93.219-47.333a74.339 74.339 0 0 0 -3.184-11.41c-5.164-13.979-17.045-31.888-44.332-37.818a5 5 0 0 0 -5.578 2.738c-.437.919-10.566 22.817 1.544 49.36a4.71 4.71 0 0 1 -2.339 6.215c-11.085 5.008-26.172 14.954-35.09 33.9a5 5 0 0 0 2.841 6.838 85.837 85.837 0 0 0 31.864 3.825c15.4-1.066 36.481-7.139 52.009-29.408 19.517 14.917 35.124 35.169 43.211 56.241a93.867 93.867 0 0 1 .576 65.85 76.256 76.256 0 0 1 -4.192 9.629c-17.713-14.745-50.151-9.25-51.664-8.982a5 5 0 0 0 -1.425 9.367c11.974 6.179 19.41 29.144 21.9 40.022a122.251 122.251 0 0 0 -15.856 23.532c-10.279 20.707-10.2 41.919.214 58.2 10.087 15.767 28.513 24.686 50.807 24.685q1.192 0 2.4-.034a76.821 76.821 0 0 0 22.792-4.221c22.157-7.614 41.016-23.161 54.616-45 30.7-15.675 49.387-32.369 71.1-55.757a5 5 0 0 0 -5.293-8.129zm-195.436-174.073c-10.751 17.163-26.259 26.61-46.108 28.081a78.656 78.656 0 0 1 -22.468-1.709 60.875 60.875 0 0 1 27.319-23.739 14.711 14.711 0 0 0 7.32-19.479 52.854 52.854 0 0 1 -2.989-37.116c36.15 10.448 37.098 46.811 36.926 53.962zm123.837 229.684a4.984 4.984 0 0 0 -2.166 2.129c-12.584 20.607-29.375 34.634-49.907 41.69a66.856 66.856 0 0 1 -19.825 3.682c-19.773.564-35.994-6.745-44.5-20.044-8.477-13.249-8.36-30.876.32-48.362 4.528-9.121 10.577-16.833 15.929-23.189a5 5 0 0 0 1.277-4.388 130.087 130.087 0 0 0 -6.03-20.3q-5.034-12.927-11.534-20.662c11.3-.34 27.9 1.124 35.427 11.422a5 5 0 0 0 8.3-.322 89.489 89.489 0 0 0 8.34-17.228 103.746 103.746 0 0 0 -.665-72.777c-9.054-23.59-26.762-46.178-48.8-62.341 0-1.018-.033-2.278-.116-3.737 32.913 9.691 60.331 19.732 84.867 43.672 30.9 30.153 48.579 70.662 48.495 111.142a174.411 174.411 0 0 1 -3.432 34.019c-.013.056-.025.111-.037.168a5 5 0 0 0 3.6 5.833c10.94 2.939 25.861.906 37.458-1.649-16.471 16.32-32.929 29.108-57.001 41.242z"/><path d="m53.786 349.026a145.753 145.753 0 0 1 -8.472-48.912 5 5 0 0 0 -4.989-5.01h-.011a5 5 0 0 0 -5 4.99 155.746 155.746 0 0 0 9.042 52.26 5 5 0 1 0 9.43-3.328z"/><path d="m93.809 411.255a166.4 166.4 0 0 1 -23.684-28.986 5 5 0 1 0 -8.408 5.413 176.427 176.427 0 0 0 25.108 30.731c14.05 13.709 29.746 24.016 49.4 32.438a5 5 0 0 0 3.94-9.192c-18.487-7.921-33.216-17.582-46.356-30.404z"/><path d="m165.282 450.847a5 5 0 0 0 -3.037 9.527c6.638 2.116 13.249 4.056 18.84 5.673a5 5 0 1 0 2.78-9.605c-5.527-1.6-12.057-3.515-18.583-5.595z"/><path d="m20.907 363.594a5 5 0 0 0 -9.814 1.924 155.752 155.752 0 0 0 19.028 49.507 5 5 0 0 0 8.6-5.1 145.748 145.748 0 0 1 -17.814-46.331z"/><path d="m87.345 472.379a5 5 0 0 0 2.734-9.189 166.414 166.414 0 0 1 -28.865-23.83 5 5 0 1 0 -7.2 6.944 176.407 176.407 0 0 0 30.6 25.264 4.975 4.975 0 0 0 2.731.811z"/><path d="m458.214 160.762a145.759 145.759 0 0 1 8.472 48.913 5 5 0 0 0 4.989 5.01h.011a5 5 0 0 0 5-4.99 155.756 155.756 0 0 0 -9.042-52.261 5 5 0 0 0 -9.43 3.328z"/><path d="m425.175 91.376c-14.049-13.708-29.745-24.015-49.4-32.438a5 5 0 1 0 -3.94 9.191c18.485 7.923 33.214 17.584 46.353 30.405a166.369 166.369 0 0 1 23.683 28.985 5 5 0 1 0 8.409-5.412 176.41 176.41 0 0 0 -25.105-30.731z"/><path d="m330.915 43.741a5 5 0 0 0 -2.78 9.606c5.542 1.6 12.083 3.523 18.583 5.595a5 5 0 1 0 3.037-9.527c-6.612-2.108-13.234-4.051-18.84-5.674z"/><path d="m481.879 94.764a5 5 0 1 0 -8.6 5.1 145.752 145.752 0 0 1 17.817 46.333 5 5 0 0 0 9.814-1.924 155.738 155.738 0 0 0 -19.031-49.509z"/><path d="m420.461 39.681a5 5 0 0 0 1.46 6.918 166.368 166.368 0 0 1 28.865 23.83 5 5 0 0 0 7.2-6.944 176.407 176.407 0 0 0 -30.6-25.264 5 5 0 0 0 -6.925 1.46z"/><circle cx="195.871" cy="184.392" r="8"/><circle cx="314.15" cy="317.478" r="8"/></svg>