<svg id="Layer_1" height="512" viewBox="0 0 512 512" width="512" xmlns="http://www.w3.org/2000/svg" data-name="Layer 1"><path d="m282.078 354.445h.119a6 6 0 0 0 .115-12l-5.127-.1c-8.241-8.526-17.023-12.609-26.141-12.115-15.019.8-24.609 14.018-25.01 14.58a6 6 0 0 0 .832 7.909 44.312 44.312 0 0 0 6.557 4.723v22.569a6 6 0 0 0 12 0v-14.13a18.582 18.582 0 0 0 3.732 8.068 15.489 15.489 0 0 0 11.612 5.462c1.14.049 2.668.068 4.384.068 6.846 0 16.716-.309 17.235-.326a6 6 0 0 0 -.381-11.994c-.154 0-15.477.489-20.728.264a3.556 3.556 0 0 1 -2.888-1.14 6.588 6.588 0 0 1 -1.213-2.807c6.225-.6 13.03-3.118 19.691-9.133zm-30.258-2.94h-.006a25.419 25.419 0 0 1 -4.725-.966 33.312 33.312 0 0 1 -7.073-3.127c2.847-2.413 6.95-4.965 11.735-5.2 4.548-.233 9.2 1.7 13.907 5.728a20.241 20.241 0 0 1 -13.838 3.565z"/><path d="m227.155 334.843c.125-.122 12.766-12.18 27.641-11.688 7.891.262 15.249 4.1 21.872 11.414a6 6 0 0 0 4.447 1.973h8.345a6 6 0 0 0 0-12h-5.76c-8.471-8.564-18.084-13.063-28.608-13.383-.4-.013-.79-.018-1.182-.018-19.447 0-34.486 14.482-35.129 15.111a6 6 0 0 0 8.378 8.591z"/><path d="m377.655 264.484a6 6 0 0 0 8.66.61l7.025-6.395 5.363 5.969a6 6 0 0 0 8.391.525l7.76-6.719 6.046 6.326a6.006 6.006 0 0 0 4.339 1.855h.077a5.992 5.992 0 0 0 4.367-1.967l9.49-10.46a6 6 0 1 0 -8.887-8.063l-5.159 5.687-5.539-5.8a6 6 0 0 0 -8.267-.392l-7.626 6.6-5.462-6.079a6 6 0 0 0 -8.5-.426l-6.84 6.226-4.651-5.616a6 6 0 0 0 -9.242 7.653z"/><path d="m82.655 357.213a6 6 0 0 0 8.66.609l7.025-6.393 5.36 5.971a6 6 0 0 0 8.391.526l7.76-6.719 6.042 6.327a6 6 0 0 0 4.339 1.856h.077a6 6 0 0 0 4.367-1.967l9.49-10.459a6 6 0 1 0 -8.887-8.064l-5.159 5.686-5.539-5.8a6 6 0 0 0 -8.267-.391l-7.626 6.6-5.462-6.078a6 6 0 0 0 -8.5-.426l-6.84 6.226-4.65-5.617a6 6 0 0 0 -9.242 7.654z"/><path d="m108.062 280.285a25.3 25.3 0 1 0 -25.352-25.3 25.353 25.353 0 0 0 25.352 25.3zm0-38.593a13.3 13.3 0 1 1 -13.352 13.3 13.34 13.34 0 0 1 13.352-13.3z"/><path d="m405.062 373.014a25.3 25.3 0 1 0 -25.352-25.3 25.353 25.353 0 0 0 25.352 25.3zm0-38.593a13.3 13.3 0 1 1 -13.352 13.3 13.34 13.34 0 0 1 13.352-13.3z"/><path d="m472 87.944h-432a30.034 30.034 0 0 0 -30 30v296.113a10 10 0 0 0 10 10h28.967a10 10 0 0 0 10-10v-10.508h394.067v10.508a10 10 0 0 0 10 10h28.966a10 10 0 0 0 10-10v-296.113a30.034 30.034 0 0 0 -30-30zm-450 30a18.021 18.021 0 0 1 18-18h6.017a29.836 29.836 0 0 0 -6.017 18v18.556a5.983 5.983 0 0 0 0 1.255v41.227h-18zm24.967 294.113h-24.967v-9h24.967zm0-21h-24.967v-200.073h24.967zm113.76.492h-101.76v-84.944h101.76zm0-96.944h-101.76v-78.9h101.76zm182 96.944h-170v-84.944h170zm0-96.944h-170v-78.9h55.522v36.054a29.974 29.974 0 1 0 59.948 0v-36.05h54.53zm-102.478-42.842v-60.779h35.951v60.779a17.974 17.974 0 1 1 -35.948 0zm212.785 139.786h-98.307v-84.944h98.307zm0-96.944h-98.307v-78.9h98.307zm0-90.9h-164.834v-12.721h164.834zm6.966-51.811h-122.033a6 6 0 0 0 0 12h122.033v15.09h-318.492a6 6 0 0 0 0 12h86.741v12.725h-169.282v-12.725h42.541a6 6 0 1 0 0-12h-49.508v-35.855h5.574a6 6 0 0 0 0-12h-5.574v-13.185a18.021 18.021 0 0 1 18-18h372a18.021 18.021 0 0 1 18 18zm30 260.163h-24.966v-9h24.966zm0-21h-24.966v-200.073h24.966zm0-212.073h-18v-61.04a29.836 29.836 0 0 0 -6.017-18h6.017a18.021 18.021 0 0 1 18 18z"/><path d="m271.977 255.737v-22.048a6 6 0 0 0 -6-6h-15.507a6 6 0 0 0 -6 6v22.048a6 6 0 0 0 6 6h15.507a6 6 0 0 0 6-6zm-12-6h-3.507v-10.048h3.507z"/><path d="m258.224 223.7a13.992 13.992 0 1 0 -14.016-13.992 14.019 14.019 0 0 0 14.016 13.992zm0-15.984a1.992 1.992 0 1 1 -2.016 1.992 2.005 2.005 0 0 1 2.016-1.991z"/><path d="m315.366 151.894h-32.4a6 6 0 0 0 0 12h32.4a6 6 0 0 0 0-12z"/><path d="m195.76 125.1h-36.242a6 6 0 0 0 0 12h36.242a6 6 0 0 0 0-12z"/></svg>