<svg id="Layer_1" height="512" viewBox="0 0 512 512" width="512" xmlns="http://www.w3.org/2000/svg" data-name="Layer 1"><path d="m158.542 48.172a7.15 7.15 0 1 0 0-14.3 7.159 7.159 0 0 0 -7.112 6.42 7.21 7.21 0 0 0 0 1.459 7.159 7.159 0 0 0 7.112 6.421z"/><path d="m129.466 465.67a237.156 237.156 0 0 0 126.047 36.365 240.535 240.535 0 0 0 54.049-6.184 237.48 237.48 0 0 0 149.17-106.18c33.77-54.078 44.426-118.272 30.006-180.754-13.678-59.271-46.322-111.211-91.918-146.251-48.386-37.187-108.114-53.266-173.212-46.748q-.14-.3-.307-.6a7.885 7.885 0 0 0 -5.844-3.914c-79.857-10.073-102.614 36.296-108.689 56.696a27.714 27.714 0 0 1 -8.458 13.138 239.4 239.4 0 0 0 29.156 384.432zm-97.235-241.344 6.154 1.392a6 6 0 1 0 2.647-11.7l-6.468-1.463a226.429 226.429 0 0 1 23.708-61.494l4.989 2.3a6 6 0 1 0 5.016-10.9l-3.794-1.746a228.357 228.357 0 0 1 43.656-50.377 39.687 39.687 0 0 0 12.13-18.808 66.583 66.583 0 0 1 23.006-34c13.431-10.34 31.139-15.53 52.815-15.53q6 0 12.408.531a73 73 0 0 1 -18.989 15.815c-10.434 6.045-18.943 14.65-24.244 20.8a7.906 7.906 0 0 0 -1.765 6.784 7.977 7.977 0 0 0 9.807 6.139l36.214-9.325a230.376 230.376 0 0 1 -47.97 30.386 125.846 125.846 0 0 0 -29.545 19.287 191.05 191.05 0 0 0 -52.846 75l-8-3.6a6 6 0 1 0 -4.923 10.944l8.9 4a190.824 190.824 0 0 0 -4.55 99.1c.816 3.7 1.748 7.361 2.771 10.98l-7.623 1.375a6 6 0 1 0 2.129 11.81l9.137-1.647a188.924 188.924 0 0 0 64.059 87.863l-6.851 9.747 4.9 9.451a5.993 5.993 0 0 0 4.914-2.55l6.792-9.665q2.141 1.433 4.324 2.817a189.311 189.311 0 0 0 110.436 29.458l-.667 12.675a6 6 0 0 0 5.677 6.308c.107 0 .214.007.32.007a6 6 0 0 0 5.988-5.684l.75-14.262a192.02 192.02 0 0 0 71.9-22.886l5.813 7.413a6 6 0 0 0 9.444-7.4l-4.867-6.207a190.108 190.108 0 0 0 58.555-59.519c.2-.321.389-.645.587-.966l7.99 4.095a6 6 0 1 0 5.473-10.679l-7.479-3.834a189.26 189.26 0 0 0 21.087-112.163l7.71-2.209a6 6 0 1 0 -3.306-11.535l-6.213 1.78q-.816-4.436-1.837-8.859a212.843 212.843 0 0 0 -47.205-91.7l3.882-4.541a6 6 0 1 0 -9.121-7.8l-2.963 3.466a212.477 212.477 0 0 0 -99.961-57.488l1.223-4.577a6 6 0 1 0 -11.593-3.1l-1.347 5.04a240.187 240.187 0 0 0 -58.773-4.075 10.419 10.419 0 0 0 -2.611.392l-29.646 7.635a71.908 71.908 0 0 1 11.14-8.1 85.025 85.025 0 0 0 23.624-20.243q11.649-1.4 23.05-1.8v8.6a6 6 0 0 0 12 0v-8.758a233.026 233.026 0 0 1 71.784 11.8l-2.8 6.538a6 6 0 1 0 11.033 4.721l3.052-7.131a216.472 216.472 0 0 1 42.193 22.459l-5.11 6.288a6 6 0 0 0 9.312 7.569l5.54-6.816c.1.077.2.15.3.226a230.532 230.532 0 0 1 45.791 47.2l-4.964 4.011a6 6 0 0 0 7.543 9.333l4.262-3.444a251.187 251.187 0 0 1 24.675 48.613l-7.5 2.219a6 6 0 1 0 3.4 11.507l8.091-2.394q3.587 10.984 6.235 22.39a231.548 231.548 0 0 1 5.751 42.692l-6.736.532a6 6 0 0 0 .465 11.981q.239 0 .48-.018l5.968-.471a224.787 224.787 0 0 1 -8.934 60.117l-5.255-2.431a6 6 0 1 0 -5.039 10.89l6.612 3.06a229.36 229.36 0 0 1 -38 68.084l-6.431-4.809a6 6 0 1 0 -7.186 9.612l5.806 4.341a225.1 225.1 0 0 1 -101.462 64.6l-2.235-6.276a6 6 0 1 0 -11.305 4.025l1.953 5.484c-1.539.388-3.081.77-4.632 1.127a226.971 226.971 0 0 1 -72.635 4.855l.559-9.147a6 6 0 1 0 -11.978-.732l-.514 8.41a224.757 224.757 0 0 1 -59.03-17.39l4.852-9.507a6 6 0 0 0 -10.688-5.456l-4.975 9.747q-8.458-4.359-16.632-9.444a228.965 228.965 0 0 1 -37.652-29.386l6.082-7.515a6 6 0 1 0 -9.327-7.549l-5.212 6.459a224.356 224.356 0 0 1 -35.652-50.869l8.3-3.3a6 6 0 0 0 -4.436-11.15l-9.036 3.6a230.169 230.169 0 0 1 -18.019-64.308l6.286-1.078a6 6 0 0 0 -2.029-11.828l-5.476.939a226.985 226.985 0 0 1 2.587-55.18zm170.253-.636a48.762 48.762 0 1 0 85.35-.426q28.325 10.423 58.605 33.84c-25.515 19.518-51.144 32.085-76.273 37.39a127.8 127.8 0 0 1 -62.991-2.157 135.6 135.6 0 0 1 -52.489-29.611c5.969-8.226 22.06-27.657 47.798-39.036zm-38.531 10.931 23.074-41.311v24.663a130.068 130.068 0 0 0 -23.074 16.648zm35.074-22.553v-40.242l14.137-25.311 2.038 60.071a114.812 114.812 0 0 0 -16.175 5.482zm83.517-3.21a139.574 139.574 0 0 0 -25.668-5.234l.54-116.052 25.344 43.473zm11.989 4.112.171-61.439 16.667 28.59.936 40.817a191.225 191.225 0 0 0 -17.774-7.968zm29.332-11.418 24.447 41.933a273.982 273.982 0 0 0 -23.85-15.883zm-36.411 100.78a179.023 179.023 0 0 0 18.317-6.881l21.3 46.71-25.129-.254zm1.659 39.445-32.263-.326v-32.751a148.587 148.587 0 0 0 15.395-2.379c1.2-.249 2.393-.537 3.59-.816zm27.5-51.474q7.249-3.71 14.5-8.14l32.823 60.37-23.612-.239zm-71.763 19.097v31.93l-27.128-.274 11.8-32.268c4.334.413 8.689.64 13.066.64.751 0 1.512-.017 2.262-.028zm-48.066-7.807c2.092.733 4.233 1.435 6.434 2.09a138.726 138.726 0 0 0 14.144 3.412l-12.37 33.834-26-.262zm-30.92 38.941-24.353-.246 28-51.557a148.419 148.419 0 0 0 16.114 8.418zm-6.409-58.434-31.525 58.049-22.791-.23 39.3-70.365a127.6 127.6 0 0 0 15.016 12.546zm246.674 72.86a177.728 177.728 0 0 1 -57.678 55.471 5.876 5.876 0 0 0 -.846.5 179.068 179.068 0 0 1 -50.694 20.177 179.623 179.623 0 0 1 -191.437-79.186zm-28.464-12.288-36.445-67.032q9.043-6.139 18.05-13.358l47.035 80.679zm-120.965-280.151c-.1-.176-.222-.34-.34-.5 38.606 4.532 73.9 18.977 103.616 42.634a202.412 202.412 0 0 1 22.963 21.41l.049.054a200.979 200.979 0 0 1 47.819 90.166 177.706 177.706 0 0 1 -14.207 120.509zm10.173 154.77a36.754 36.754 0 1 1 -42.567-.45c.575-.112 1.142-.234 1.724-.337a109.722 109.722 0 0 1 40.846.787zm-42.392-91.042 20.927-37.466-.532 114.173a116.627 116.627 0 0 0 -17.752 1.229zm21.8-63.632-151.095 270.513a179.262 179.262 0 0 1 44.714-211.67 113.894 113.894 0 0 1 26.751-17.466 242.287 242.287 0 0 0 56.875-37.426 10.225 10.225 0 0 0 3.357-6.089q10.416-.121 20.57.673a5.962 5.962 0 0 0 -1.172 1.465z"/><path d="m221.142 244.474a24.2 24.2 0 0 0 22.622 25.626q.762.047 1.522.047a24.17 24.17 0 0 0 24.078-22.691 24.157 24.157 0 1 0 -48.222-2.978zm11.976.738a12.166 12.166 0 0 1 12.117-11.429q.382 0 .766.024a12.185 12.185 0 0 1 7.3 21.285 12.053 12.053 0 0 1 -8.8 3.027 12.185 12.185 0 0 1 -11.383-12.907z"/></svg>