<svg id="Layer_1" height="512" viewBox="0 0 512 512" width="512" xmlns="http://www.w3.org/2000/svg" data-name="Layer 1"><path d="m390.139 14.543h-.408c-49.188 0-89.7 39.968-90.384 89.277a90.334 90.334 0 0 0 14.477 50.48 1.766 1.766 0 0 1 -.126 2.115l-54.8 64.53-146.686-189.645a19.814 19.814 0 0 0 -35 7.768c-.121.539-.213 1.08-.289 1.621h-.008l-24.215 166.196q-.011.07-.018.141a19.235 19.235 0 0 0 11.643 20.1l-32.218 114.4a6 6 0 0 0 4.021 7.364l30.727 9.395a6 6 0 0 0 7.681-4.8l1.014-6.422h19.571a6 6 0 0 0 5.97-5.4l.105-1.043 2.036 10.863a6 6 0 0 0 7.54 4.665l32.419-9.226a6 6 0 0 0 4.1-7.524l-34.873-114.1a19.328 19.328 0 0 0 8.082-19.298l-21.427-126.456 132.254 173.875-9.3 10.95a6 6 0 0 0 9.147 7.768l23.795-28.021 10.764 10.784-56.684 68.37-11.749-11.247 7.894-9.3a6 6 0 0 0 -.331-8.126 6 6 0 0 0 -8.816.359l-134.054 157.87a21.276 21.276 0 0 0 16.191 35.062q.4 0 .813-.016a21.252 21.252 0 0 0 15.528-7.665l161.31-194.565 163.565 203.448a22.408 22.408 0 1 0 34.718-28.337l-171.679-207.2 68.3-82.38c7.649-9.226 8.062-22.65.982-31.918q-.494-.645-1.023-1.263c-7.321-8.529-9.882-19.651-10.757-25.522-3.702-24.87 15.297-49.399 41.493-53.57 26.448-4.212 53.233 14 57.314 38.988 1.868 11.441-1.155 23.3-8.513 33.384-8.713 11.945-22.31 19.84-38.286 22.231a17.76 17.76 0 0 0 -15.128 17.818l.51 27.06a18.948 18.948 0 0 0 37.892-.073l.084-5.67a.845.845 0 0 1 .547-.8 91.11 91.11 0 0 0 46.073-32.238 89.9 89.9 0 0 0 18.186-54.493c0-49.713-40.362-90.34-89.974-90.564zm-305.131 53.82 13.6 80.229h-25.286zm-21.244 276.423-18.511-5.66 31.11-110.464h5.737zm25.927-9.729h-12.243l10.38-65.746 5.5 29.352zm44.332 1.988-20.208 5.755-20.406-108.841.836-5.3h6.655zm-25.341-128.981a7.3 7.3 0 0 1 -7.16 8.6h-29.7a7.293 7.293 0 0 1 -7.228-8.128l2.078-14.265h39.675zm-8.045-47.472 3.673 21.677h-35.894l3.158-21.677zm-10.313-112.373a7.833 7.833 0 0 1 12.4-9.579l41.776 54.021-12.567 10.267zm48.882 64.267 12.642-10.329 3.459 4.472-12.83 10.157zm100.074 131.568-89.537-117.716 12.906-10.217 88.312 114.179zm-153.994 228.495a9.233 9.233 0 0 1 -13.741.527 9.262 9.262 0 0 1 -.405-12.482l14.191-16.712 12.957 12.984zm20.695-24.962-12.856-12.887 5.19-6.112 13.053 12.5zm13.066-15.759-12.95-12.4 70.415-82.92 11.778 11.8zm76.936-92.8-11.677-11.7 5.217-6.143 11.848 11.346zm116.082-244.453 16.409 1.475a55.239 55.239 0 0 0 -.912 7.844l-16.156-1.45a78.452 78.452 0 0 1 .659-7.869zm-49.3 140.363 5.194-6.116 10.812 10.354-5.344 6.446zm182.117 233.471a10.407 10.407 0 0 1 -1.665 14.886 10.464 10.464 0 0 1 -14.461-1.725l-15.937-19.822 15.589-13.222zm-24.131-29.124-15.451 13.107-141.648-176.179 11-13.264zm-79.151-293.485q.306.357.591.73a13.753 13.753 0 0 1 -.684 16.975l-55.055 66.405-10.71-10.256 47.106-55.471a13.7 13.7 0 0 0 1.055-16.4 78.147 78.147 0 0 1 -11.99-33.248l16.458 1.477c1.303 7.469 4.661 19.813 13.229 29.788zm38.476-98.828c-.175.026-.353.042-.528.07a62.75 62.75 0 0 0 -47.51 37.276l-17.426-1.567a78.851 78.851 0 0 1 65.988-55.651zm19.751.306a63.5 63.5 0 0 0 -7.731-.871l.522-19.792a78.219 78.219 0 0 1 8.539.775zm52.516 105.1a79.022 79.022 0 0 1 -39.956 27.96 12.781 12.781 0 0 0 -9.076 12.113l-.084 5.669a6.948 6.948 0 0 1 -13.895.028l-.51-27.06a5.728 5.728 0 0 1 4.906-5.725c19.176-2.87 35.586-12.468 46.2-27.028a60.14 60.14 0 0 0 8.33-15.9l17.752.834a77.919 77.919 0 0 1 -13.67 29.114zm15.773-47.275q0 3.139-.244 6.237l-16.928-.8a53.762 53.762 0 0 0 .277-8.483l16.808-.4c.047 1.15.084 2.296.084 3.451zm-18.814-15c-3.646-13.064-12.125-24.527-24.332-32.713a65.65 65.65 0 0 0 -13.333-6.87l1.363-20.426a78.893 78.893 0 0 1 53.586 59.6z"/></svg>