<?xml version="1.0" encoding="UTF-8"?>
<svg xmlns="http://www.w3.org/2000/svg" id="Layer_1" data-name="Layer 1" viewBox="0 0 512 512" width="512" height="512"><path d="M43.051,375.9a82.838,82.838,0,0,0,42.177,40.25A31.62,31.62,0,0,0,74.734,440.19v31.241A29.575,29.575,0,0,0,104.248,501h303.5a29.575,29.575,0,0,0,29.514-29.569V440.19a31.335,31.335,0,0,0-10.852-23.9,82.819,82.819,0,0,0,42.014-39.373,5.975,5.975,0,0,0,1.922-4.118,82.117,82.117,0,0,0,6.725-32.613,6,6,0,0,0-6-6H373.25l15.081-16.343a23.816,23.816,0,0,0,6.325-16.193V150.062C394.656,73.383,332.455,11,256,11S117.344,73.383,117.344,150.062V302.089a23.915,23.915,0,0,0,5.644,15.422l14.1,16.673H116.841a6,6,0,0,0,0,12H146.23a11.893,11.893,0,0,1,.689,3.977v60.46H117.181a70.2,70.2,0,0,1-58.9-32.111H98.727a6,6,0,0,0,0-12h-46.7a70.021,70.021,0,0,1-4.855-20.326H76.841a6,6,0,1,0,0-12H40.925a5.991,5.991,0,0,0-6,5.967A82.055,82.055,0,0,0,42.2,374.017,5.955,5.955,0,0,0,43.051,375.9ZM237.486,489a29.444,29.444,0,0,0,5.792-17.569v-48.81h25.444v48.81A29.444,29.444,0,0,0,274.514,489ZM201.8,168.6H310.2v55.517a53.309,53.309,0,0,1-53.245,53.252h-1.91A53.309,53.309,0,0,1,201.8,224.119Zm-6.815-12c-1.43-.467-2.922-1.735-2.922-4.989a5.821,5.821,0,0,1,5.8-5.833h22.41V156.6Zm97.089,0V145.78h22.067a5.821,5.821,0,0,1,5.8,5.833,5.061,5.061,0,0,1-5.31,4.989ZM306.8,413.271V394.928h42.68v18.343Zm40.108,12a21.293,21.293,0,0,1-37.535,0ZM306.8,382.928V363.693h42.68v19.235Zm0-31.235V332.234h51.922l-2.916,3.161a23.81,23.81,0,0,0-6.326,16.193v.1Zm-12-74.464v56.955H276.457V321.7a18.053,18.053,0,0,1,5.025-12.538,22.111,22.111,0,0,0,6.157-15.352V281.684A65.365,65.365,0,0,0,294.8,277.229Zm-55.668,24.059-.288-.333a10.219,10.219,0,0,1-2.482-6.677V286.63a65.015,65.015,0,0,0,18.684,2.741h1.91a65.015,65.015,0,0,0,18.684-2.741v7.177a10.165,10.165,0,0,1-2.828,7.057,30,30,0,0,0-8.354,20.833v52.415a9,9,0,1,1-18,0V321A30.148,30.148,0,0,0,239.131,301.288Zm-9.368,7.512.288.334A18.144,18.144,0,0,1,234.461,321v13.189H217.854v-56.5a65.456,65.456,0,0,0,6.507,4v12.594A22.215,22.215,0,0,0,229.763,308.8Zm-11.909,37.384h16.607v27.928a21,21,0,1,0,42,0V346.184H294.8v64.437H217.854ZM425.266,471.431A17.561,17.561,0,0,1,407.752,489h-36.72V468.924a6,6,0,0,0-12,0V489h-60.8a17.56,17.56,0,0,1-17.513-17.569v-48.81h14.943a33.313,33.313,0,0,0,64.949,0h34.205a82.172,82.172,0,0,0,13.59-1.146,16.9,16.9,0,0,1,14.331,8.977h-2.4a6,6,0,1,0,0,12h4.928Zm39.557-125.247a70.021,70.021,0,0,1-4.855,20.326H413.641a6,6,0,0,0,0,12h40.08a70.2,70.2,0,0,1-58.9,32.111h-33.34V351.588a11.856,11.856,0,0,1,1.3-5.4Zm-82.167-44.536a11.844,11.844,0,0,1-3.145,8.055l-9.717,10.531H306.8V300.776h75.857Zm0-12.872H306.8V269.355l75.857.446Zm0-30.975-69.606-.41a64.817,64.817,0,0,0,7.692-19.532h61.914Zm0-31.942H322.17c.015-.579.03-1.158.03-1.74V206.4h60.456Zm0-31.459H322.2V174.942h60.456Zm0-44.338v12.88H327.6a16.734,16.734,0,0,0,4.338-11.329,17.737,17.737,0,0,0-1.976-8.13h52.527Q382.655,146.752,382.656,150.062ZM381.3,131.483H322.723a93.169,93.169,0,0,1,8.214-19.458h45.92A126.463,126.463,0,0,1,381.3,131.483Zm-8.885-31.458H339.081a86.493,86.493,0,0,1,22.6-19.908A126.99,126.99,0,0,1,372.413,100.025ZM354.592,70.4c-11.808,7.3-36.027,26.324-44.907,63.382H292.666c2.686-25.748,10.732-76.83,25.283-94.509A127.689,127.689,0,0,1,354.592,70.4ZM262,23.146A125.442,125.442,0,0,1,307.074,33.8C298.91,45.172,292.093,64.76,286.752,92.24c-3.393,17.46-5.292,33.454-6.131,41.54H262ZM280.074,145.78V156.6H232.269V145.78ZM250,23.146V133.78H231.338c-3.237-18.661-14.036-76.5-27.194-99.635A125.438,125.438,0,0,1,250,23.146ZM193.514,39.573c9.473,15.764,20.017,62.211,25.647,94.207H203.21c-6.934-31.2-34.385-54.193-46.226-62.854A127.706,127.706,0,0,1,193.514,39.573Zm-43.565,41.1A143.706,143.706,0,0,1,171.3,100.025H139.587A127.032,127.032,0,0,1,149.949,80.676Zm-14.806,31.349h45.513a76.338,76.338,0,0,1,9.537,19.458H130.7A126.463,126.463,0,0,1,135.143,112.025Zm-5.8,38.037q0-3.311.168-6.579h52.527a18.37,18.37,0,0,0,1.809,19.459h-54.5Zm0,24.88H189.8V194.4H129.344Zm0,31.458H189.8v17.719c0,.582.015,1.161.03,1.74H129.344Zm0,31.459h61.914a64.8,64.8,0,0,0,7.7,19.538l-69.61.4Zm0,31.939,76.51-.44v19.418h-76.51Zm11.664,50.436-8.857-10.472a11.9,11.9,0,0,1-2.807-7.673v-1.313h76.51v19.458Zm17.911,93.037V394.928h46.935v18.343Zm44.362,12a21.345,21.345,0,0,1-18.767,11.235H180.26a21.346,21.346,0,0,1-18.768-11.235Zm-44.362-42.343V363.693h46.935v19.235Zm0-31.235v-1.532a23.91,23.91,0,0,0-5.643-15.421l-2.119-2.506h54.7v19.459ZM86.734,442.67h4.414a6,6,0,0,0,0-12H88.9a16.488,16.488,0,0,1,14.113-9.3,82.173,82.173,0,0,0,14.165,1.249h30.6a33.409,33.409,0,0,0,32.475,25.885h4.254a33.407,33.407,0,0,0,32.474-25.885h14.29v48.81A17.56,17.56,0,0,1,213.765,489h-60.8V468.924a6,6,0,0,0-12,0V489h-36.72a17.561,17.561,0,0,1-17.514-17.569Z"/></svg>
