<?xml version="1.0" encoding="UTF-8"?>
<svg xmlns="http://www.w3.org/2000/svg" id="Layer_1" data-name="Layer 1" viewBox="0 0 512 512" width="512" height="512"><path d="M502,371.14l-1.062-268.582A38.62,38.62,0,0,0,462.343,64h-69.85a6,6,0,0,0-3.644,1.233l-10.223,7.812L368.4,65.233A6,6,0,0,0,364.759,64h-14.5a6,6,0,0,0-3.443,1.086l-12.174,8.528-17.587-8.96A6,6,0,0,0,314.335,64H187.353a28.97,28.97,0,0,0-18.911,7.024l-17,14.653L133.6,70.75A29.023,29.023,0,0,0,115.01,64H49.78a38.616,38.616,0,0,0-38.6,38.534L10,402.041a45.631,45.631,0,0,0,11.927,30.982c4.461,4.9,10.8,2.271,14.583.7.892-.37,2.253-.934,3.128-1.18a30.127,30.127,0,0,1,2.8,4.475C44.985,441.654,48.48,448,55.828,448a45.858,45.858,0,0,0,45.829-45.783v-3.961h79.409a5.99,5.99,0,0,0,3.377-1.041l21.594-14.706v9.747a6,6,0,0,0,6.246,6l85.875-3.516a6,6,0,0,0,4.384-2.178l5.8-7.033,5.894,5.5a6,6,0,0,0,4.092,1.611h92.14v9.586a45.832,45.832,0,0,0,91.419,4.682,17.852,17.852,0,0,0-2.41-10.914l-4.685-7.822,4.734-7.953A17.614,17.614,0,0,0,502,371.14ZM247.27,384.808l-29.233,1.2V371.163a6,6,0,0,0-9.377-4.959l-29.443,20.052h-77.56v-92.6a17.605,17.605,0,0,0-3.832-10.966L94.336,278.3l1.873-1.788a17.6,17.6,0,0,0,5.448-12.732v-21.1H247.27Zm0-154.126H101.657V208.1a6,6,0,0,0-12,0v55.681a5.605,5.605,0,0,1-1.734,4.053l-5.839,5.573a6,6,0,0,0-.552,8.076l6.906,8.677a5.6,5.6,0,0,1,1.219,3.486v46.594H81.968a6,6,0,0,0,0,12h7.689v49.974A33.845,33.845,0,0,1,56.055,436c-.845-.653-2.253-3.21-3.11-4.768-1.966-3.568-4.194-7.614-8.188-9.722a9.481,9.481,0,0,0-4.508-1.1c-2.962,0-5.85,1.2-8.333,2.227-.684.283-1.581.655-2.315.914A33.655,33.655,0,0,1,22,402.088l.856-216.46H47.721a6,6,0,1,0,0-12H22.9l.068-17.137h2.774a6,6,0,1,0,0-12H23.019l.1-24.8c9.472,6.189,24.553,12.862,42.995,9.894a58.34,58.34,0,0,0,23.545-9.413V168.1a6,6,0,0,0,12,0V110.285a7.339,7.339,0,0,0-2.933-5.977,7.176,7.176,0,0,0-9.191.595,47.912,47.912,0,0,1-25.327,12.83c-20.053,3.228-35.668-8.35-41.03-13.025l.008-2.15A26.607,26.607,0,0,1,49.78,76h65.23a16.98,16.98,0,0,1,10.895,3.957l21.742,18.192a6,6,0,0,0,7.767-.056l20.859-17.976A16.977,16.977,0,0,1,187.356,76H247.27Zm163.2,149.949H320.689l-8.83-8.233a6,6,0,0,0-8.721.573l-8.149,9.883-35.719,1.463V242.682h151.2Zm1.226-201.964a6,6,0,0,0-1.226,3.635v48.38H259.27V76H312.9l19.517,9.943a6,6,0,0,0,6.166-.432L352.155,76h10.574l12.254,9.364a6,6,0,0,0,7.286,0L394.522,76h67.821a26.621,26.621,0,0,1,26.5,24.292c-12.983,13.636-27.108,19.665-40.924,17.441a47.869,47.869,0,0,1-25.172-12.682,7.374,7.374,0,0,0-6.273-2.037,7.186,7.186,0,0,0-6.006,7.087v41.547a6,6,0,0,0,1.261,3.68l8.957,11.533Zm70.963,212.589,6.525,10.9a5.777,5.777,0,0,1,.767,3.533,33.832,33.832,0,0,1-67.481-3.467V342.449h5.8a6,6,0,0,0,0-12h-5.8V310.237h29.209a6,6,0,0,0,0-12H422.466V184.327l10.56-13.867a6,6,0,0,0-.035-7.315l-10.525-13.554V120.168a58.33,58.33,0,0,0,23.544,9.413c10.743,1.729,26.233.461,42.983-13.093l.113,28.449h-6.655a6,6,0,0,0,0,12h6.7L490,371.187a5.607,5.607,0,0,1-.788,2.886L482.646,385.1A6,6,0,0,0,482.655,391.256Z"/><path d="M127.935,166.825A40.766,40.766,0,1,0,168.7,126.1,40.791,40.791,0,0,0,127.935,166.825Zm69.531,0A28.766,28.766,0,1,1,168.7,138.1,28.778,28.778,0,0,1,197.466,166.825Z"/><path d="M132.162,325.942a6,6,0,0,0,9.281.35l11.4-12.91,10.994,12.841a6,6,0,0,0,8.88.259l12.044-12.5,7.07,11.487a6,6,0,0,0,9.158,1.284l17.206-15.728a6,6,0,1,0-8.1-8.857L198.247,313l-7.326-11.9a6,6,0,0,0-9.431-1.018L168.655,313.4l-11.186-13.065a6,6,0,0,0-4.512-2.1h-.046a6,6,0,0,0-4.5,2.029L137.3,312.852l-9.263-12.237a6,6,0,0,0-9.568,7.244Z"/><path d="M286.979,314.386A49,49,0,0,0,353.833,332.3l28.279-16.309a6,6,0,0,0,2.2-8.2l-3.842-6.647a49.027,49.027,0,0,0-66.854-17.913l-28.279,16.308a6,6,0,0,0-2.2,8.2Zm32.629-20.761a37.016,37.016,0,0,1,50.469,13.523l.837,1.448L347.838,321.9a37.016,37.016,0,0,1-50.469-13.524l-.837-1.447Z"/><path d="M333.421,319.723a11.92,11.92,0,1,0-11.927-11.92A11.937,11.937,0,0,0,333.421,319.723Z"/><path d="M377.884,137.873H300.36a6,6,0,0,0,0,12h77.524a6,6,0,0,0,0-12Z"/><path d="M377.884,173.194H300.36a6,6,0,0,0,0,12h77.524a6,6,0,0,0,0-12Z"/></svg>
