<svg id="Layer_1" height="512" viewBox="0 0 512 512" width="512" xmlns="http://www.w3.org/2000/svg" data-name="Layer 1"><path d="m410.868 81.18a215.727 215.727 0 0 0 -71.694-51.143c-27.403-12.127-56.988-18.537-85.557-18.537-48.143 0-95.617 21.285-133.665 59.934-36.111 36.677-60.1 85.973-65.831 135.246a17.51 17.51 0 0 0 25.485 17.54c29.665-15.486 85.092-33.61 142.713 3.368l.07 37.78a34.045 34.045 0 0 0 14.611 27.949v188.183a19 19 0 0 0 38 0v-187.663a34.055 34.055 0 0 0 15.378-28.469v-35.388c63.4-36.307 121.514-14.427 145.086-2.285a15 15 0 0 0 21.79-12.028 169.79 169.79 0 0 0 -9.373-73.964 181.469 181.469 0 0 0 -37.013-60.523zm-147.868 400.32a7 7 0 0 1 -14 0v-61h14zm0-73h-14v-109.9a33.786 33.786 0 0 0 14 .165zm15.378-143.132a21.995 21.995 0 1 1 -43.989-.011l-.054-29.257c2.653 2.06 5.307 4.233 7.961 6.549a22.053 22.053 0 0 0 27.862.849c2.745-2.11 5.485-4.087 8.22-5.964zm-43.816-44.016c1.5-9.917 10.321-17.319 21.346-17.319 10.692 0 20.514 8.856 22.21 19.306-5.071 3.188-10.165 6.718-15.274 10.645a9.894 9.894 0 0 1 -12.657-.376 187 187 0 0 0 -15.625-12.256zm54.369-4.306c-4.337-14.1-17.912-25.013-33.023-25.013-15.229 0-27.786 9.275-32.04 22.4q-6.216-3.686-12.585-6.708a50 50 0 0 1 43.942-26.6 49.321 49.321 0 0 1 45.62 30.112q-5.918 2.602-11.914 5.809zm23.069-10.246a61.245 61.245 0 0 0 -56.773-37.681 62.078 62.078 0 0 0 -55 33.888q-4.648-1.758-9.371-3.176a70.1 70.1 0 0 1 130.737 3.917q-4.761 1.352-9.593 3.052zm-92.469-53.647a81.7 81.7 0 0 0 -17.747 11.675l-47.91-46a140.1 140.1 0 0 1 37.41-29.113zm-17.431-68.648a138.862 138.862 0 0 1 46.973-11v71.659a82.212 82.212 0 0 0 -18.38 3.553zm74.675 63.232a81.923 81.923 0 0 0 -15.7-2.613v-71.8a139.064 139.064 0 0 1 47.408 9.73zm42.664-59.769a139.829 139.829 0 0 1 34.963 24.94c1.122 1.094 2.216 2.21 3.3 3.336l-48.679 48.564a82.248 82.248 0 0 0 -20.833-13.086zm13.851 112.954a81.926 81.926 0 0 0 -15.771-27.647l48.13-48.018a138.957 138.957 0 0 1 30.484 76.01 157.533 157.533 0 0 0 -62.843-.345zm112.01 13.65a3.04 3.04 0 0 1 -1.575 2.419 2.881 2.881 0 0 1 -2.77.036 176.233 176.233 0 0 0 -32.585-12.785 151.6 151.6 0 0 0 -283.718-65.273 6 6 0 0 0 10.437 5.92 139.679 139.679 0 0 1 11.074-16.817l47.137 45.255a82.2 82.2 0 0 0 -14.189 23.532 140.3 140.3 0 0 0 -28.6-2.923c-.9 0-1.8.008-2.7.025a153.011 153.011 0 0 0 -29.535 3.494 140.038 140.038 0 0 1 2.335-14.268 5.991 5.991 0 0 0 -5.853-7.27h-.009a6 6 0 0 0 -5.868 4.721 152.5 152.5 0 0 0 -2.962 19.991 180.894 180.894 0 0 0 -31.866 12.954 5.511 5.511 0 0 1 -8.013-5.519c5.423-46.669 28.19-93.4 62.462-128.211 35.779-36.34 80.212-56.353 125.115-56.353 26.909 0 54.815 6.055 80.7 17.51a203.647 203.647 0 0 1 67.683 48.259c22.717 24.892 48.667 66.831 43.3 125.303z"/></svg>