<svg id="Layer_1" height="512" viewBox="0 0 512 512" width="512" xmlns="http://www.w3.org/2000/svg" data-name="Layer 1"><path d="m83.861 104.127h-6.666a6 6 0 0 0 0 12h6.666a6 6 0 0 0 0-12z"/><path d="m229.858 259.826 15.868 58.315a26.515 26.515 0 0 0 4.86 9.595l5.309 6.676a14.671 14.671 0 0 1 3.011 6.858l4.756 30.383c-3.435 5.972-7.156 14.193-6.41 20.831-4.2 2.922-9.7 7.6-13.339 13.929a11.09 11.09 0 0 0 .028 11.2 11.453 11.453 0 0 0 9.885 5.711h30.848a11.353 11.353 0 0 0 8.937-4.315c4.249-5.346 17.316-24.3 7.075-43.766-3.7-7.029-7.922-21.26-12.214-41.154-1-4.62-2.4-9.824-4.175-15.468a157.222 157.222 0 0 1 -6.416-64.273c9.055-2.5 18.926-4.677 21.612-4.428 15.536 4.631 36.964 1.227 54.852-8.246l-1.157 6.019a38.787 38.787 0 0 0 1.812 21.075l9.927 26.212a26.755 26.755 0 0 1 1.143 15.114l-11.039 51.482a18.689 18.689 0 0 0 -10.531 22.148c-4.9 3.729-12.747 11.176-15.471 22.164a11.732 11.732 0 0 0 2.171 10.112 11.853 11.853 0 0 0 9.393 4.576h26.007a11.947 11.947 0 0 0 10.219-5.8l9.8-16.43a25.592 25.592 0 0 0 3.492-15.39c-1.228-14.367 2.394-48.82 13.7-63.446a17.39 17.39 0 0 0 3.051-14.819 118.772 118.772 0 0 1 -3.161-38.87c.36.4.712.811 1.087 1.2l31.948 33.124a44.406 44.406 0 0 1 10.785 18.855l11.043 39.643a1 1 0 0 1 -.21.914c-7.753 9.206-8.622 17.933-7.984 23.633a.923.923 0 0 1 -.519.977c-7.108 2.577-12.515 8.862-15.637 18.178a12.794 12.794 0 0 0 1.755 11.509 12.956 12.956 0 0 0 10.494 5.377h27.123a12.863 12.863 0 0 0 11.906-7.927l8.779-21.04a12.821 12.821 0 0 0 -.156-10.241c-5.653-12.354-9.675-37.874-9.353-59.359a71.571 71.571 0 0 0 -11.359-39.6l-18.266-28.668c-7.453-11.7-11.059-21.7-11.689-32.419-1.266-21.529-2.743-38.017-4.413-49.348 5.73 5.912 12.257 14.5 13.2 23.633a6 6 0 0 0 5.962 5.386 6.21 6.21 0 0 0 .621-.032 6 6 0 0 0 5.355-6.583c-2.359-22.909-27.458-40.794-32.53-44.189-11.375-14.851-40.362-37.75-46.808-42.764q-.207-.16-.427-.3l-47.259-30.56a38.559 38.559 0 0 0 -46.059 2.922l-28.877 24.358a74.433 74.433 0 0 1 -27.769 14.617c-17.859 5.111-25.052 16.15-25.832 17.423-23.195 37.828-45.454 36.6-53.951 34.31-10.953-2.948-19.079-12.366-19.323-22.4-.533-21.955-9.509-35.258-14.243-40.774l6.874-17.5a9.683 9.683 0 0 0 -13.851-11.876l-14.157 8.145a15.125 15.125 0 0 1 -4.428 1.687l-16.189 3.4c-.119.025-.238.054-.355.086a42.527 42.527 0 0 1 -13.206 1.47l-26.728-1.227a14.046 14.046 0 0 0 -13.5 8.251c-1 2.187-5.4 8.2-10.364 13.652-3.262 3.585-8.241 17.085-2.68 25.858 5.639 8.9 17.455 7.507 26.375 4.774a5.951 5.951 0 0 0 1.294-.577v.005a12.618 12.618 0 0 1 11.126-.824l2.98 1.213c.119.049.24.094.362.134.2.066 20.123 7.73 34.666 48.886 6.188 17.511 47.421 56.824 89.807 56.824a64.839 64.839 0 0 0 12.117-1.137l-1.51 17.863a66.177 66.177 0 0 1 -8.3 26.933 68.906 68.906 0 0 0 -8.951 35.79 27.172 27.172 0 0 1 -1.669 10.177l-11.708 32.46a.933.933 0 0 1 -.4.509c-7.558 3.99-11.881 10.325-11.859 17.382a1.264 1.264 0 0 1 -.466 1.09c-6.813 3.792-15.563 12.528-18.674 22.746a8.138 8.138 0 0 0 7.775 10.526h35.1a8.115 8.115 0 0 0 7.9-6.194l5.863-23.931a25.989 25.989 0 0 0 .934-6.905v-6.466a14.024 14.024 0 0 1 2.47-7.951c25.557-37.323 28.317-61.356 28.317-69.957a68.223 68.223 0 0 1 13.798-41.166zm-10.9-5.487a77.761 77.761 0 0 0 -6.85 11.5l-10.06-4.339 1.388-16.412a135.606 135.606 0 0 0 15.517 9.251zm-18.388 19.587 7.113 3.074q-.925 2.973-1.662 6.227l-6.862-3.352c.541-1.966 1.023-3.945 1.406-5.949zm64.544 4.252c.059 1.4.14 2.805.235 4.208l-16.136 2.85-1.116-4.1zm24.957 102.655c6.577 12.5-1.626 25.329-5.677 30.493h-29.42a35.995 35.995 0 0 1 9.633-9.336 10.672 10.672 0 0 0 4.587-10.722c-.352-1.934 1.079-7.123 5.053-13.948a10.844 10.844 0 0 0 1.335-7.109l-4.82-30.8a26.7 26.7 0 0 0 -5.475-12.473l-5.308-6.674a14.58 14.58 0 0 1 -2.674-5.279l-4.933-18.126 14.217-2.512a172.253 172.253 0 0 0 6.259 27.869c1.664 5.294 2.973 10.139 3.893 14.4 4.584 21.248 9.067 36.123 13.325 44.217zm104.029-132.614c.1.38.232.752.346 1.128-.439 1.534-1.034 3.9-1.594 7h-28.315a26.75 26.75 0 0 1 .434-6.389l3.393-17.646a64.468 64.468 0 0 0 16.023-19.723zm41.918-6.771-25.456 13.8a31.731 31.731 0 0 1 -3.257-5.668l26.807-13.743q.824 2.8 1.906 5.611zm-66.739 31.131-1.6-4.229h23.761c-.081 1.35-.139 2.764-.174 4.229zm25.038 39.6c-14.017 18.131-17.484 56.321-16.161 71.804a13.655 13.655 0 0 1 -1.84 8.219l-9.771 16.377-25.826.032c2.784-10.846 13.648-17.126 13.738-17.176a6 6 0 0 0 2.663-7.435c-1.391-3.539-1.583-6.344-.572-8.336 1.427-2.812 5.06-3.805 5.056-3.805a6 6 0 0 0 4.482-4.58l11.722-54.669a38.715 38.715 0 0 0 -1.654-21.879l-2.329-6.151h17.751a140.67 140.67 0 0 0 3.626 22.942 5.529 5.529 0 0 1 -.885 4.654zm68.965-24.666a59.608 59.608 0 0 1 9.482 32.975c-.3 20.076 3.188 48.688 10.438 64.531a.786.786 0 0 1 -.006.627l-8.779 21.042a.894.894 0 0 1 -.831.547h-27.123a.9.9 0 0 1 -.754-.386.709.709 0 0 1 -.116-.689c1.337-3.988 3.87-9.084 8.348-10.708a12.856 12.856 0 0 0 8.355-13.591c-.547-4.893 1.215-9.8 5.236-14.57a13 13 0 0 0 2.593-11.864l-11.044-39.647a56.438 56.438 0 0 0 -13.707-23.96l-26.474-27.445 22.238-12.055c1.179 2.136 2.461 4.3 3.874 6.521zm-132.651-202.223.245.159c-1.947 3.906-7.786 6.83-14.471 6.83-6.808 0-12.728-3.084-14.561-7.163a26.592 26.592 0 0 1 28.787.174zm-60.678 26.385 19.7-16.624a6 6 0 0 0 10.433 5.7l.381-.519a28.772 28.772 0 0 0 4.387 2.042l-.044.241a6 6 0 1 0 11.8 2.183l.079-.426q1.2-.009 2.38-.095l.5 1.418a6 6 0 0 0 11.323-3.977l-.173-.493a27.421 27.421 0 0 0 3.182-1.812l.3.415a6 6 0 0 0 10.6-5.284l32.881 21.263c1.486 1.158 3.062 2.4 4.7 3.715-15.163 12.451-45.236 20.54-77.9 20.54-23.422 0-46.483-4.608-63.333-12.369a85.76 85.76 0 0 0 28.804-15.918zm-43.221 21.858c19.057 11.584 47.738 18.43 77.74 18.43 36.933 0 70.231-9.611 87.309-24.829 1.867 1.565 3.749 3.163 5.621 4.777-15.561 11.314-45.755 26.163-97.039 26.163-33.5 0-59.446-8.931-80.609-18.5a29.163 29.163 0 0 1 6.978-6.041zm-144.219 18.208c1.284.119 2.544.2 3.752.2 6.186 0 11.381-1.563 15.547-4.689 11.941-8.962 9.729-26.672 9.628-27.422a6 6 0 1 0 -11.894 1.588c.015.114 1.243 11.6-4.938 16.236-5.269 3.956-15.871 2.75-29.862-3.384a32.449 32.449 0 0 0 -6.032-3.207l-2.884-1.173a24.685 24.685 0 0 0 -21.008 1.193c-7.435 2.192-11.168 1.512-12.1.226-1.77-2.444.079-9.554 1.447-11.581 4.594-5.062 10.372-12.389 12.309-16.648a2.106 2.106 0 0 1 2.026-1.232l26.729 1.225a54.572 54.572 0 0 0 16.746-1.836l16.021-3.361a27.081 27.081 0 0 0 7.94-3.026l8.421-4.837-5.025 12.787c-.06.154-.114.309-.161.467a9.894 9.894 0 0 0 2.17 9.509c3.45 3.753 11.526 14.575 12 33.978a32.336 32.336 0 0 0 3.18 13.044c-9.775 16.648-21.551 21.474-27.584 22.87-5.157-13.422-10.91-23.458-16.428-30.927zm21.752 41.875c7.966-2.406 19.671-8.4 29.775-23.27a39.71 39.71 0 0 0 8.648 6.5c-5.02 16.844-21.294 25.431-28.241 28.4a90.308 90.308 0 0 1 -10.182-11.63zm30.546 27.784a125.6 125.6 0 0 1 -10.53-7.508c9.729-5.029 24.162-15.187 29.682-32.889 11.512 2.306 35.242 1.7 59-31.341q2.049.942 4.157 1.876l-1.219 2.283a6 6 0 1 0 10.586 5.653l1.758-3.293q3.49 1.362 7.138 2.654l-1.7 5.175a6 6 0 1 0 11.4 3.749l1.729-5.256q4.566 1.322 9.378 2.464l-1.4 4.9a6 6 0 1 0 11.535 3.306l1.667-5.813q4.027.685 8.219 1.218l-.5 6.051a6 6 0 0 0 5.483 6.476c.169.014.336.021.5.021a6 6 0 0 0 5.973-5.5l.493-5.936q4 .248 8.142.337l-.042 7.164a6 6 0 0 0 5.965 6.036h.036a6 6 0 0 0 6-5.965l.043-7.321c3.112-.092 6.163-.228 9.124-.423l.48 7.3a6 6 0 0 0 5.982 5.606c.132 0 .265 0 .4-.013a6 6 0 0 0 5.594-6.381l-.5-7.615c2.344-.277 4.643-.58 6.882-.917l1.108 7.191a6 6 0 0 0 5.922 5.088 6.151 6.151 0 0 0 .922-.071 6 6 0 0 0 5.016-6.844l-1.156-7.5q3.915-.829 7.59-1.769l2.555 7.731a6 6 0 1 0 11.394-3.764l-2.424-7.337q5-1.659 9.485-3.468l2.818 5.874a6 6 0 0 0 10.821-5.191l-2.7-5.633q3.552-1.791 6.67-3.6l2.491 3.688a6 6 0 0 0 9.945-6.715l-2.356-3.489c.773-.559 1.5-1.107 2.212-1.649 6.847 6.263 12.726 12.165 15.861 16.395a5.86 5.86 0 0 0 .6.83 15.2 15.2 0 0 1 1.429 2.454c2.483 5.737 5.106 28.526 7.014 60.962.057.975.141 1.942.238 2.906l-27.976 14.343-17.898-65.61a6 6 0 0 0 -11.578 3.157l4.245 15.573c-1.746 17.865-13.338 29.341-22.857 35.852-16.152 11.049-38.395 15.875-52.886 11.475-4.052-1.23-13.532.577-22.936 3.007a41.352 41.352 0 0 0 -7.931-31.1l-10.304-13.539a6 6 0 1 0 -9.547 7.27l10.307 13.535a29.341 29.341 0 0 1 5.477 22.952q-.282 1.56-.546 3.091a160.854 160.854 0 0 0 -2.238 22.416l-20.123 3.5-4.33-15.909a6 6 0 0 0 -3.419-3.936c-33.048-14.216-41.233-26.636-43.171-32.774-1.58-5.008.218-8.008.3-8.133a1.57 1.57 0 0 1 -.095.139l-9.806-6.916c-.518.734-4.973 7.466-2.081 17.71q2.162 7.656 8.922 14.973c-22.396 5.344-44.695-5.781-56.439-13.263zm43.027 142.761a25.971 25.971 0 0 0 -4.569 14.731v6.47a14.024 14.024 0 0 1 -.518 3.773c-.018.062-.034.125-.049.188l-5.162 21.077h-26.112a32.562 32.562 0 0 1 10.782-10.788 13.166 13.166 0 0 0 6.63-11.612c-.01-3.344 3.417-5.652 5.463-6.732a12.875 12.875 0 0 0 6.082-7.047l11.715-32.461a39.135 39.135 0 0 0 2.375-14.657 56.9 56.9 0 0 1 7.427-29.519c1.165-2.08 2.207-4.2 3.172-6.35l9.16 4.474c-.111 1.722-.178 3.477-.178 5.28 0 5.839-1.891 27.651-26.218 63.177z"/><path d="m496 431h-278.833a6 6 0 0 0 0 12h278.833a6 6 0 0 0 0-12z"/><path d="m179.621 431h-31.147a6 6 0 1 0 0 12h31.147a6 6 0 0 0 0-12z"/><path d="m126.318 431h-89.189a6 6 0 1 0 0 12h89.189a6 6 0 1 0 0-12z"/></svg>