<svg id="Layer_1" enable-background="new 0 0 512 512" height="512" viewBox="0 0 512 512" width="512" xmlns="http://www.w3.org/2000/svg"><g><g><g><path d="m74.103 183.796-28.617-28.617c-6.47-6.47-6.47-16.959 0-23.429l11.714-11.714c6.47-6.47 16.959-6.47 23.429 0l28.617 28.617 244.144-.336 28.281-28.281c6.47-6.47 16.959-6.47 23.429 0l11.714 11.714c6.47 6.47 6.47 16.959 0 23.429l-28.617 28.617z" fill="#f9f5f5"/><path d="m416.814 131.75-11.714-11.714c-6.403-6.403-16.737-6.458-23.221-.188.068.065.141.121.208.188l11.714 11.714c6.47 6.47 6.47 16.959 0 23.429l-28.617 28.617h23.013l28.617-28.617c6.47-6.47 6.47-16.959 0-23.429z" fill="#e2d8ec"/><path d="m206.3 47h49.7v70.1h-49.7z" fill="#f9f5f5"/><path d="m164.883 41.2v-25.7c0-4.418 3.582-8 8-8h116.533c4.418 0 8 3.582 8 8v25.7c0 8.837-7.164 16-16 16h-100.533c-8.836 0-16-7.163-16-16z" fill="#ffdc67"/><path d="m289.417 7.5h-23c4.418 0 8 3.582 8 8v25.7c0 8.837-7.164 16-16 16h23c8.836 0 16-7.163 16-16v-25.7c0-4.418-3.582-8-8-8z" fill="#ffb957"/><circle cx="231.15" cy="305.7" fill="#365e7d" r="198.8"/><path d="m231.15 106.9c-3.861 0-7.693.122-11.5.339 104.441 5.959 187.3 92.528 187.3 198.461s-82.859 192.502-187.3 198.461c3.807.217 7.639.339 11.5.339 109.794 0 198.8-89.006 198.8-198.8s-89.006-198.8-198.8-198.8z" fill="#2b4d66"/><circle cx="231.15" cy="305.7" fill="#a4c7ff" r="165.667"/><path d="m231.15 140.033c-3.867 0-7.699.144-11.5.404 86.129 5.907 154.167 77.634 154.167 165.263s-68.038 159.356-154.167 165.262c3.801.261 7.633.404 11.5.404 91.495 0 165.667-74.171 165.667-165.667s-74.172-165.666-165.667-165.666z" fill="#91b6ff"/><path d="m214.583 287.063v-47.629c0-9.15 7.417-16.567 16.567-16.567s16.567 7.417 16.567 16.567v47.629z" fill="#f9f5f5"/><circle cx="231.15" cy="305.7" fill="#ffdc67" r="24.85"/></g><g><path d="m447.467 466.307c20.08-17.046 32.677-42.638 32.168-71.158-.87-48.699-40.543-88.459-89.24-89.431-51.65-1.031-93.755 40.925-92.968 92.521.734 48.148 39.456 87.8 87.575 89.627 9.144.347 18-.661 26.388-2.83 1.917-.496 3.949-.266 5.72.619l28.746 14.373c3.3 1.65 6.948-1.514 5.781-5.014l-6.61-19.829c-1.059-3.18-.116-6.708 2.44-8.878z" fill="#f9f5f5"/><g><path d="m368.92 440.09-36.713-27.535c-1.83-1.372-2.201-3.968-.828-5.798l14.909-19.88c1.372-1.83 3.968-2.201 5.798-.828l18.539 13.903c1.322.992 3.118 1.068 4.52.192l50.796-31.748c1.94-1.212 4.495-.623 5.707 1.317l13.171 21.074c1.212 1.94.623 4.495-1.317 5.707l-70.062 43.788c-1.402.876-3.198.8-4.52-.192z" fill="#b3e59f"/></g><path d="m447.467 466.307c20.08-17.046 32.677-42.638 32.168-71.158-.87-48.699-40.543-88.459-89.24-89.431-4.542-.091-9.008.158-13.379.71 44.198 5.615 78.807 43.273 79.619 88.721.51 28.52-12.088 54.112-32.168 71.158-2.556 2.17-3.499 5.698-2.439 8.878l5.172 15.515 18.657 9.328c3.3 1.65 6.948-1.514 5.781-5.014l-6.61-19.829c-1.06-3.18-.117-6.708 2.439-8.878z" fill="#e2d8ec"/></g></g><g><path d="m238.65 189.733v-16.567c0-4.142-3.358-7.5-7.5-7.5s-7.5 3.358-7.5 7.5v16.567c0 4.142 3.358 7.5 7.5 7.5s7.5-3.357 7.5-7.5z"/><path d="m122.769 305.614c0-4.142-3.358-7.5-7.5-7.5h-16.566c-4.142 0-7.5 3.358-7.5 7.5s3.358 7.5 7.5 7.5h16.566c4.142 0 7.5-3.358 7.5-7.5z"/><path d="m223.65 421.494v16.567c0 4.142 3.358 7.5 7.5 7.5s7.5-3.358 7.5-7.5v-16.567c0-4.142-3.358-7.5-7.5-7.5s-7.5 3.358-7.5 7.5z"/><path d="m207.083 239.433v44.677c-5.146 5.731-8.284 13.3-8.284 21.59 0 17.837 14.512 32.35 32.35 32.35s32.35-14.512 32.35-32.35c0-8.29-3.137-15.859-8.283-21.589v-44.678c0-13.27-10.796-24.066-24.067-24.066-13.269 0-24.066 10.796-24.066 24.066zm24.067 83.617c-9.567 0-17.35-7.783-17.35-17.35s7.783-17.35 17.35-17.35 17.35 7.783 17.35 17.35-7.783 17.35-17.35 17.35zm0-92.683c4.999 0 9.067 4.067 9.067 9.066v35.219c-2.879-.842-5.919-1.302-9.067-1.302-3.147 0-6.188.46-9.066 1.302v-35.219c-.001-4.999 4.067-9.066 9.066-9.066z"/><path d="m452.143 472.814c-.098-.293-.025-.617.177-.789h.001c22.655-19.232 35.344-47.302 34.813-77.01-.456-25.502-10.711-49.573-28.875-67.776-6.313-6.326-13.338-11.696-20.886-16.035.048-1.837.076-3.676.076-5.503 0-45.228-14.641-87.094-39.417-121.134l24.085-24.085c9.384-9.383 9.384-24.652 0-34.035l-11.714-11.714c-9.384-9.383-24.651-9.384-34.035 0l-24.085 24.084c-25.757-18.747-55.995-31.687-88.783-36.874v-37.243h17.916c12.958 0 23.5-10.542 23.5-23.5v-25.7c0-8.547-6.953-15.5-15.5-15.5h-116.533c-8.547 0-15.5 6.953-15.5 15.5v25.7c0 12.958 10.542 23.5 23.5 23.5h17.917v37.229c-12.808 2.017-25.385 5.231-37.62 9.642-3.896 1.405-5.917 5.702-4.512 9.599 1.404 3.896 5.701 5.917 9.599 4.512 20.767-7.486 42.597-11.282 64.883-11.282 104.988 0 190.481 85.016 191.281 189.819-5.89-2.169-11.993-3.768-18.239-4.771-3.304-92.599-79.652-166.915-173.042-166.915-95.484 0-173.167 77.683-173.167 173.167 0 40.289 14.142 79.526 39.82 110.484 1.483 1.789 3.622 2.712 5.776 2.712 1.687 0 3.384-.566 4.784-1.728 3.188-2.644 3.629-7.373.984-10.561-23.449-28.271-36.364-64.107-36.364-100.907 0-87.213 70.953-158.167 158.167-158.167 84.702 0 154.06 66.927 157.985 150.675-6.939-.047-13.765.613-20.398 1.953-1.343-1.266-3.148-2.048-5.139-2.048h-16.568c-4.142 0-7.5 3.358-7.5 7.5 0 1.758.609 3.37 1.622 4.649-8.029 4.418-15.492 9.994-22.186 16.657-19.137 19.047-29.45 44.417-29.038 71.434.26 17.083 4.946 33.557 13.458 48.066-22.236 11.422-47.04 17.447-72.236 17.447-37.102 0-73.167-13.105-101.55-36.901-3.174-2.661-7.905-2.245-10.566.929s-2.245 7.905.929 10.566c31.08 26.056 70.567 40.406 111.187 40.406 28.249 0 56.059-6.911 80.86-20.017 1.911 2.348 3.931 4.625 6.07 6.814 2.288 2.342 4.677 4.552 7.151 6.636-28.608 16.188-60.909 24.7-94.081 24.7-105.483 0-191.3-85.817-191.3-191.3 0-69.78 38.017-134.046 99.215-167.721 3.629-1.997 4.952-6.558 2.955-10.187s-6.556-4.952-10.187-2.955c-7.642 4.205-14.944 8.858-21.89 13.905l-24.011-24.011c-9.384-9.383-24.651-9.384-34.035 0l-11.715 11.714c-9.382 9.384-9.382 24.651 0 34.035l24.028 24.031c-25.149 34.659-39.36 76.893-39.36 121.19 0 113.754 92.546 206.3 206.3 206.3 38.125 0 75.186-10.431 107.503-30.198 13.907 8.221 29.655 12.936 46.065 13.559 9.664.368 19.269-.664 28.55-3.063.146-.038.327-.015.489.066l28.746 14.373c1.659.83 3.443 1.236 5.214 1.236 2.741 0 5.451-.973 7.619-2.853 3.57-3.096 4.912-7.993 3.418-12.477zm-279.76-431.614v-1.35h9.067c4.142 0 7.5-3.358 7.5-7.5s-3.358-7.5-7.5-7.5h-9.067v-9.35c0-.276.224-.5.5-.5h116.533c.276 0 .5.224.5.5v9.35h-9.066c-4.142 0-7.5 3.358-7.5 7.5s3.358 7.5 7.5 7.5h9.066v1.35c0 4.687-3.813 8.5-8.5 8.5h-100.533c-4.687 0-8.5-3.813-8.5-8.5zm41.417 58.923v-35.423h34.7v35.436c-5.722-.479-11.506-.736-17.35-.736-5.815 0-11.601.245-17.35.723zm150.367 48.023 22.808-22.807c3.535-3.535 9.287-3.535 12.822 0l11.714 11.714c3.535 3.535 3.535 9.287 0 12.822l-22.808 22.808c-7.48-8.847-15.69-17.056-24.536-24.537zm-313.378 1.73c-3.535-3.535-3.535-9.287 0-12.822l11.715-11.714c3.535-3.535 9.287-3.535 12.822 0l22.726 22.726c-8.896 7.517-17.094 15.733-24.529 24.545zm391.824 310.714c-4.903 4.163-6.748 10.822-4.7 16.967l4.046 12.137-21.496-10.748c-2.21-1.104-4.625-1.667-7.047-1.667-1.309 0-2.62.164-3.903.496-7.869 2.035-16.023 2.908-24.226 2.597-44.384-1.686-79.683-37.813-80.361-82.247-.349-22.912 8.395-44.424 24.622-60.574 16.225-16.148 37.75-24.814 60.698-24.334 44.361.885 81.097 37.7 81.89 82.066.451 25.194-10.31 48.997-29.523 65.307z"/><path d="m438.007 365.739c-3.401-5.443-10.597-7.105-16.042-3.703l-48.761 30.476-16.619-12.464c-2.488-1.865-5.557-2.65-8.63-2.21-3.079.439-5.802 2.052-7.667 4.54l-14.911 19.88c-1.865 2.488-2.65 5.553-2.21 8.63.439 3.079 2.052 5.802 4.54 7.667l38.907 29.181c1.329.997 2.912 1.5 4.5 1.5 1.375 0 2.755-.378 3.975-1.14l72.387-45.242c2.638-1.648 4.475-4.225 5.174-7.255s.177-6.15-1.472-8.788zm-66.507 66.911-32.107-24.081 10.88-14.506 18.045 13.534c2.479 1.86 5.848 2.001 8.475.36l50.273-31.421 9.612 15.378z"/></g></g></svg>